<svg width="226" height="247" viewBox="0 0 226 247" fill="none" xmlns="http://www.w3.org/2000/svg">
<path d="M2 84V55L98 3L209 65V84" stroke="#599CD9" stroke-width="4"/>
<path d="M17 84V65L128.5 3L224 55.5V84" stroke="#599CD9" stroke-width="4"/>
<path d="M224 163L224 192L128 244L17 182L17 163" stroke="#599CD9" stroke-width="4"/>
<path d="M209 163L209 182L97.5 244L2 191.5L2.00001 163" stroke="#599CD9" stroke-width="4"/>
<path d="M109 106C109 113.18 103.18 119 96 119C88.8203 119 83 113.18 83 106C83 96 96 80 96 80C96 80 109 96 109 106Z" fill="#599CD9"/>
<path d="M95.5 61.5C76.3 82.7 74.8334 101 76.5 107.5C61 79 92 48 100 37.5C117.2 60.3 119.833 80 119 87C119.667 86.1667 121.3 82.3 122.5 73.5C136.9 104.7 118.167 116.5 107 118.5C129 96.5 103.5 71 95.5 61.5Z" fill="#E94F4A"/>
<path d="M224.924 137.812L223.979 143.549C221.764 143.876 219.476 144.094 217.225 144.094C211.523 144.094 203.534 141.697 203.534 132.219C203.534 123.394 210.434 119 218.605 119C220.784 119 222.963 119.291 225.105 119.654L225.359 125.174C223.507 124.738 221.619 124.302 219.694 124.302C213.557 124.302 211.16 128.515 211.16 132.146C211.16 136.577 214.319 138.792 218.459 138.792C220.675 138.792 222.817 138.356 224.924 137.812Z" fill="#599CD9"/>
<path d="M180.841 119.436H200.597L200.342 124.847C198.127 124.738 195.912 124.629 193.733 124.629H188.358L188.104 128.878H192.244C194.278 128.878 196.275 128.842 198.309 128.769L197.946 134.071H187.777L187.523 138.465H189.92C193.188 138.465 196.457 138.356 199.725 138.175L199.398 143.658H179.606C180.042 139.664 180.841 131.129 180.841 119.436Z" fill="#599CD9"/>
<path d="M155.808 119.436H178.469L178.251 124.811C177.961 124.774 173.53 124.629 170.734 124.629C170.298 130.403 169.971 139.119 169.935 143.658H162.127C162.708 137.848 163.108 131.965 163.18 124.629C160.675 124.629 158.169 124.738 155.627 124.811L155.808 119.436Z" fill="#599CD9"/>
<path d="M143.456 124.629L143.311 128.878H152.535L152.353 134.144C150.792 134.071 149.194 134.071 147.632 134.071H143.02L142.802 143.658H134.885C135.357 139.845 136.011 128.406 136.011 119.436H154.786L154.532 124.702C152.498 124.629 150.465 124.629 148.431 124.629H143.456Z" fill="#599CD9"/>
<path d="M120.971 124.629L120.826 128.878H130.05L129.869 134.144C128.307 134.071 126.709 134.071 125.147 134.071H120.535L120.317 143.658H112.401C112.873 139.845 113.526 128.406 113.526 119.436H132.302L132.047 124.702C130.014 124.629 127.98 124.629 125.946 124.629H120.971Z" fill="#599CD9"/>
<path d="M84.8727 119.436H92.4991C92.2448 123.467 91.5912 130.585 91.5912 133.599C91.5912 136.867 92.7896 138.792 95.6948 138.792C100.271 138.792 100.416 135.197 100.743 130.984C101.033 127.135 101.251 123.285 101.324 119.436H109.095C108.986 120.925 108.224 130.948 108.006 136.541C107.861 140.245 104.556 144.094 95.6948 144.094C86.6159 144.094 83.9648 140.245 83.9648 136.904C83.9648 131.456 84.7275 125.864 84.8727 119.436Z" fill="#599CD9"/>
<path d="M72.1835 136.686H63.2498L60.054 143.658H51.7014C54.2798 139.409 62.4871 123.685 64.4845 119.436H73.6361C76.4324 127.571 79.4466 135.633 82.5335 143.658H74.4714C73.854 141.298 73.0187 139.01 72.1835 136.686ZM65.3924 131.602H70.9124L68.6608 124.665L65.3924 131.602Z" fill="#599CD9"/>
<path d="M33.9738 128.442H43.6702C43.7791 125.936 43.8881 124.266 43.8881 119.436H51.7686C51.2965 126.626 50.7517 132.219 50.7517 143.658H42.7986C43.1254 140.354 43.307 137.049 43.3796 133.635H33.6833C33.5744 135.959 33.5017 138.175 33.3928 143.658H25.5123C26.0933 136.25 26.6381 130.222 26.6381 119.436H34.5186C34.2644 122.414 34.0465 125.392 33.9738 128.442Z" fill="#599CD9"/>
<path d="M22.0305 137.812L21.0863 143.549C18.871 143.876 16.5831 144.094 14.3316 144.094C8.62998 144.094 0.640503 141.697 0.640503 132.219C0.640503 123.394 7.5405 119 15.7116 119C17.8905 119 20.0695 119.291 22.2121 119.654L22.4663 125.174C20.6142 124.738 18.7258 124.302 16.801 124.302C10.6637 124.302 8.26682 128.515 8.26682 132.146C8.26682 136.577 11.4263 138.792 15.5663 138.792C17.7816 138.792 19.9242 138.356 22.0305 137.812Z" fill="#599CD9"/>
<path d="M155.088 177.224H137.409C138.261 169.696 138.635 162.099 138.703 154.503H146.061C145.891 156.785 145.21 167.005 145.108 172.353H148.923C151.103 172.353 153.283 172.353 155.463 172.251L155.088 177.224Z" fill="#E94F4A"/>
<path d="M132.611 177.224H126.377L126.616 171.297H132.918L132.611 177.224Z" fill="#E94F4A"/>
<path d="M112.475 159.272H109.545C109.171 165.233 109 171.229 108.932 177.224H101.881C102.664 170.173 102.937 163.598 102.971 154.503H114.996C116.631 154.503 123.171 154.673 123.171 160.532C123.171 164.109 121.059 166.051 117.857 167.175C119.186 170.581 120.855 173.852 122.285 177.224H114.723C113.497 172.898 111.896 168.708 110.329 164.484C110.874 164.586 111.453 164.654 111.998 164.654C113.974 164.654 116.324 163.905 116.324 161.554C116.324 159.272 114.042 159.272 112.475 159.272Z" fill="#E94F4A"/>
<path d="M97.083 177.224H90.8492L91.0876 171.297H97.3896L97.083 177.224Z" fill="#E94F4A"/>
<path d="M86.2406 154.741L86.6834 160.09C85.1505 159.476 83.4133 158.965 81.7441 158.965C80.6881 158.965 78.6783 159.34 78.6783 160.771C78.6783 163.462 86.7516 165.983 86.7516 171.024C86.7516 173.341 85.1165 177.633 77.8267 177.633C75.5443 177.633 73.262 177.292 71.0478 176.883L70.5369 171.263C72.3082 172.046 74.4202 172.762 76.396 172.762C77.5201 172.762 79.598 172.557 79.598 170.99C79.598 168.367 71.5247 165.642 71.5247 160.328C71.5247 158.761 72.4445 154.094 80.1771 154.094C82.221 154.094 84.2649 154.367 86.2406 154.741Z" fill="#E94F4A"/>
</svg>
